ExternalLoads.mot
version=1
nRows=63
nColumns=10
inDegrees=yes
endheader
time	hand_force_vx	hand_force_vy	hand_force_vz	hand_force_px	hand_force_py	hand_force_pz	hand_torque_x	hand_torque_y	hand_torque_z
      0.00000000	     -0.93322905	      6.23045179	      1.21708106	      0.00000000	     -0.08000000	      0.00000000	     -1.62522176	     -0.22045557	      4.06987582
      0.03333333	     -0.95237292	      6.32721835	      1.24011437	      0.00000000	     -0.08000000	      0.00000000	     -1.67761224	     -0.22599777	      4.09920871
      0.06666667	     -0.96989434	      6.41906133	      1.26097917	      0.00000000	     -0.08000000	      0.00000000	     -1.73432304	     -0.23168588	      4.12612913
      0.10000000	     -0.98579332	      6.50598076	      1.27967547	      0.00000000	     -0.08000000	      0.00000000	     -1.80604429	     -0.23676530	      4.14109501
      0.13333333	     -1.00006984	      6.58797661	      1.29620326	      0.00000000	     -0.08000000	      0.00000000	     -1.89968145	     -0.24056136	      4.13675794
      0.16666667	     -1.01272392	      6.66504890	      1.31056254	      0.00000000	     -0.08000000	      0.00000000	     -1.99852231	     -0.24365089	      4.12084971
      0.20000000	     -1.02375555	      6.73719762	      1.32275332	      0.00000000	     -0.08000000	      0.00000000	     -2.08911161	     -0.24625757	      4.09316586
      0.23333333	     -1.03316472	      6.80442277	      1.33277559	      0.00000000	     -0.08000000	      0.00000000	     -2.14492531	     -0.24765831	      4.04804499
      0.26666667	     -1.04095145	      6.86672436	      1.34062936	      0.00000000	     -0.08000000	      0.00000000	     -2.11041720	     -0.24823052	      3.99040153
      0.30000000	     -1.04711573	      6.92410238	      1.34631462	      0.00000000	     -0.08000000	      0.00000000	     -1.95121412	     -0.24793894	      3.91586109
      0.33333333	     -1.05165756	      6.97655683	      1.34983137	      0.00000000	     -0.08000000	      0.00000000	     -1.72199759	     -0.24714663	      3.83902483
      0.36666667	     -1.05457695	      7.02408772	      1.35117962	      0.00000000	     -0.08000000	      0.00000000	     -1.45307635	     -0.24568606	      3.74619600
      0.40000000	     -1.05587388	      7.06669504	      1.35035937	      0.00000000	     -0.08000000	      0.00000000	     -1.20707934	     -0.24403715	      3.65271802
      0.43333333	     -1.05554836	      7.10437879	      1.34737061	      0.00000000	     -0.08000000	      0.00000000	     -1.00485935	     -0.24212403	      3.55995454
      0.46666667	     -1.05360040	      7.13713897	      1.34221334	      0.00000000	     -0.08000000	      0.00000000	     -0.83472087	     -0.23970257	      3.45959792
      0.50000000	     -1.05002999	      7.16497559	      1.33488757	      0.00000000	     -0.08000000	      0.00000000	     -0.68974197	     -0.23664837	      3.34628532
      0.53333333	     -1.04483712	      7.18788864	      1.32539329	      0.00000000	     -0.08000000	      0.00000000	     -0.56780227	     -0.23303575	      3.21951240
      0.56666667	     -1.03802181	      7.20587812	      1.31373050	      0.00000000	     -0.08000000	      0.00000000	     -0.47852935	     -0.22969698	      3.10518019
      0.60000000	     -1.02958405	      7.21894404	      1.29989921	      0.00000000	     -0.08000000	      0.00000000	     -0.40874494	     -0.22648865	      2.99735133
      0.63333333	     -1.01952384	      7.22708639	      1.28389941	      0.00000000	     -0.08000000	      0.00000000	     -0.35163614	     -0.22331316	      2.89121693
      0.66666667	     -1.00784118	      7.23030517	      1.26573111	      0.00000000	     -0.08000000	      0.00000000	     -0.30528723	     -0.22022629	      2.78943789
      0.70000000	     -0.99453607	      7.22860039	      1.24539430	      0.00000000	     -0.08000000	      0.00000000	     -0.26877526	     -0.21754146	      2.69976928
      0.73333333	     -0.97960852	      7.22197204	      1.22288899	      0.00000000	     -0.08000000	      0.00000000	     -0.23807077	     -0.21513967	      2.61539857
      0.76666667	     -0.96305851	      7.21042012	      1.19821517	      0.00000000	     -0.08000000	      0.00000000	     -0.21311057	     -0.21287304	      2.54031210
      0.80000000	     -0.94488606	      7.19394463	      1.17137284	      0.00000000	     -0.08000000	      0.00000000	     -0.19355780	     -0.21042826	      2.48244809
      0.83333333	     -0.92509115	      7.17254558	      1.14236201	      0.00000000	     -0.08000000	      0.00000000	     -0.17661788	     -0.20680097	      2.43190098
      0.86666667	     -0.90367380	      7.14622296	      1.11118268	      0.00000000	     -0.08000000	      0.00000000	     -0.16299698	     -0.20300017	      2.39449472
      0.90000000	     -0.88063400	      7.11497677	      1.07783483	      0.00000000	     -0.08000000	      0.00000000	     -0.15154470	     -0.19927788	      2.36804782
      0.93333333	     -0.85597175	      7.07880702	      1.04231848	      0.00000000	     -0.08000000	      0.00000000	     -0.14206155	     -0.19512012	      2.35549729
      0.96666667	     -0.82968705	      7.03771370	      1.00463363	      0.00000000	     -0.08000000	      0.00000000	     -0.13403484	     -0.19089387	      2.35274478
      1.00000000	     -0.80177990	      6.99169681	      0.96478027	      0.00000000	     -0.08000000	      0.00000000	     -0.12702480	     -0.18641817	      2.35645025
      1.03333333	     -0.77225030	      6.94075635	      0.92275840	      0.00000000	     -0.08000000	      0.00000000	     -0.12101263	     -0.18161961	      2.37057508
      1.06666667	     -0.74109826	      6.88489233	      0.87856803	      0.00000000	     -0.08000000	      0.00000000	     -0.11591127	     -0.17606564	      2.39389938
      1.10000000	     -0.70832376	      6.82410474	      0.83220916	      0.00000000	     -0.08000000	      0.00000000	     -0.11119433	     -0.16987619	      2.42167428
      1.13333333	     -0.67392682	      6.75839359	      0.78368177	      0.00000000	     -0.08000000	      0.00000000	     -0.10615216	     -0.16288168	      2.44799646
      1.16666667	     -0.63790742	      6.68775886	      0.73298588	      0.00000000	     -0.08000000	      0.00000000	     -0.10172526	     -0.15570548	      2.48457345
      1.20000000	     -0.60026558	      6.61220057	      0.68012149	      0.00000000	     -0.08000000	      0.00000000	     -0.09701185	     -0.14772382	      2.52337112
      1.23333333	     -0.56100129	      6.53171872	      0.62508859	      0.00000000	     -0.08000000	      0.00000000	     -0.09168211	     -0.13903172	      2.56430007
      1.26666667	     -0.52011455	      6.44631329	      0.56788718	      0.00000000	     -0.08000000	      0.00000000	     -0.08481545	     -0.12977943	      2.60316972
      1.30000000	     -0.47760536	      6.35598430	      0.50851727	      0.00000000	     -0.08000000	      0.00000000	     -0.07667026	     -0.11985418	      2.64638117
      1.33333333	     -0.43347372	      6.26073174	      0.44697885	      0.00000000	     -0.08000000	      0.00000000	     -0.06586824	     -0.10866030	      2.68358885
      1.36666667	     -0.38771963	      6.16055562	      0.38327193	      0.00000000	     -0.08000000	      0.00000000	     -0.05156256	     -0.09683378	      2.72090164
      1.40000000	     -0.34034310	      6.05545593	      0.31739650	      0.00000000	     -0.08000000	      0.00000000	     -0.03149080	     -0.08415797	      2.74954836
      1.43333333	     -0.29134411	      5.94543267	      0.24935256	      0.00000000	     -0.08000000	      0.00000000	     -0.00348369	     -0.07062555	      2.77500110
      1.46666667	     -0.24072268	      5.83048584	      0.17914012	      0.00000000	     -0.08000000	      0.00000000	      0.03722418	     -0.05648842	      2.79852746
      1.50000000	     -0.18847879	      5.71061545	      0.10675917	      0.00000000	     -0.08000000	      0.00000000	      0.09859334	     -0.04158028	      2.81680997
      1.53333333	     -0.13461246	      5.58582149	      0.03220972	      0.00000000	     -0.08000000	      0.00000000	      0.19109696	     -0.02581778	      2.82233112
      1.56666667	     -0.07912368	      5.45610396	     -0.04450824	      0.00000000	     -0.08000000	      0.00000000	      0.32973502	     -0.00931559	      2.82407888
      1.60000000	     -0.02201245	      5.32146286	     -0.12339470	      0.00000000	     -0.08000000	      0.00000000	      0.50234041	      0.00802781	      2.81956337
      1.63333333	      0.03672123	      5.18189820	     -0.20444967	      0.00000000	     -0.08000000	      0.00000000	      0.61500122	      0.02625500	      2.80314904
      1.66666667	      0.09707736	      5.03740997	     -0.28767315	      0.00000000	     -0.08000000	      0.00000000	      0.63599333	      0.04528510	      2.76474753
      1.70000000	      0.15905594	      4.88799818	     -0.37306513	      0.00000000	     -0.08000000	      0.00000000	      0.61906780	      0.06514504	      2.71228026
      1.73333333	      0.22265697	      4.73366282	     -0.46062562	      0.00000000	     -0.08000000	      0.00000000	      0.59602162	      0.08587379	      2.64652479
      1.76666667	      0.28788044	      4.57440389	     -0.55035461	      0.00000000	     -0.08000000	      0.00000000	      0.57804068	      0.10723659	      2.56439825
      1.80000000	      0.35472637	      4.41022139	     -0.64225211	      0.00000000	     -0.08000000	      0.00000000	      0.57102819	      0.12935128	      2.46511868
      1.83333333	      0.42319474	      4.24111533	     -0.73631811	      0.00000000	     -0.08000000	      0.00000000	      0.56918138	      0.15221916	      2.35171689
      1.86666667	      0.49328556	      4.06708569	     -0.83255262	      0.00000000	     -0.08000000	      0.00000000	      0.57165968	      0.17557434	      2.22368246
      1.90000000	      0.56499883	      3.88813250	     -0.93095564	      0.00000000	     -0.08000000	      0.00000000	      0.57660643	      0.19956088	      2.08291732
      1.93333333	      0.63833455	      3.70425573	     -1.03152716	      0.00000000	     -0.08000000	      0.00000000	      0.58627669	      0.22445040	      1.92892298
      1.96666667	      0.71329272	      3.51545540	     -1.13426719	      0.00000000	     -0.08000000	      0.00000000	      0.59902046	      0.24950247	      1.76107855
      2.00000000	      0.78987334	      3.32173150	     -1.23917572	      0.00000000	     -0.08000000	      0.00000000	      0.61471446	      0.27523662	      1.58193762
      2.03333333	      0.86807641	      3.12308404	     -1.34625276	      0.00000000	     -0.08000000	      0.00000000	      0.63353298	      0.30261766	      1.39393277
      2.06666667	      0.94790193	      2.91951300	     -1.45549831	      0.00000000	     -0.08000000	      0.00000000	      0.65689542	      0.32958725	      1.19315245
